<?xml version="1.0" encoding="UTF-8" standalone="no"?>
<!DOCTYPE svg PUBLIC "-//W3C//DTD SVG 1.1//EN" "http://www.w3.org/Graphics/SVG/1.1/DTD/svg11.dtd">
<svg version="1.1" xmlns="http://www.w3.org/2000/svg" xmlns:xlink="http://www.w3.org/1999/xlink" preserveAspectRatio="xMidYMid meet" viewBox="0 0 640 437" width="640" height="437"><defs><path d="M628.57 0C634.88 0 640 5.12 640 11.43C640 82 640 282.28 640 352.85C640 359.16 634.88 364.28 628.57 364.28C502.86 364.28 137.14 364.28 11.43 364.28C5.12 364.28 0 359.16 0 352.85C0 282.28 0 82 0 11.43C0 5.12 5.12 0 11.43 0C137.14 0 502.86 0 628.57 0Z" id="aqnzJHq9v"></path><path d="M16.21 18.26L624.71 18.26L624.71 346.11L16.21 346.11L16.21 18.26Z" id="a2hnjYZWrJ"></path><path d="M296.21 346.11L344.71 346.11L344.71 428.37L296.21 428.37L296.21 346.11Z" id="a4oicyG7B"></path><path d="M392.75 419.06C397.89 419.06 402.05 423.22 402.05 428.36C402.05 430.22 402.05 426.52 402.05 428.38C402.05 433.52 397.89 437.68 392.75 437.68C361.97 437.68 278.94 437.68 248.16 437.68C243.02 437.68 238.86 433.52 238.86 428.38C238.86 426.52 238.86 430.22 238.86 428.36C238.86 423.22 243.02 419.06 248.16 419.06C278.94 419.06 361.97 419.06 392.75 419.06Z" id="g15CFYkgSn"></path></defs><g><g><g><g><use xlink:href="#aqnzJHq9v" opacity="1" fill="#eaeaea" fill-opacity="1"></use></g><g><use xlink:href="#a2hnjYZWrJ" opacity="1" fill="#262626" fill-opacity="1"></use></g><g><use xlink:href="#a4oicyG7B" opacity="1" fill="#eaeaea" fill-opacity="1"></use></g><g><use xlink:href="#g15CFYkgSn" opacity="1" fill="#eaeaea" fill-opacity="1"></use></g></g></g></g></svg>