<?xml version="1.0" encoding="UTF-8" standalone="no"?>
<!DOCTYPE svg PUBLIC "-//W3C//DTD SVG 1.1//EN" "http://www.w3.org/Graphics/SVG/1.1/DTD/svg11.dtd">
<svg version="1.1" xmlns="http://www.w3.org/2000/svg" xmlns:xlink="http://www.w3.org/1999/xlink" preserveAspectRatio="xMidYMid meet" viewBox="0 0 640 640" width="640" height="640"><defs><path d="M27 297.21L347 297.21L347 350.59L27 350.59L27 297.21Z" id="aHMWR0T4M"></path><path d="M80.99 297.31L80.38 617.31L27 617.21L27.6 297.21L80.99 297.31Z" id="c6wcqjQES0"></path><path d="M27 563.93L347 563.93L347 617.31L27 617.31L27 563.93Z" id="a3j0Nowy0G"></path><path d="M347 297.31L346.39 617.31L293 617.21L293.61 297.21L347 297.31Z" id="aimczXqmI"></path><path d="M347 30.59L346.39 350.59L293 350.49L293.61 30.49L347 30.59Z" id="fM4P4cFm"></path><path d="M293 30.49L613 30.49L613 83.88L293 83.88L293 30.49Z" id="bpXHgSsbn"></path><path d="M293 297.21L486.95 297.21L486.95 350.59L293 350.59L293 297.21Z" id="d70qmJTSAt"></path></defs><g><g><g><use xlink:href="#aHMWR0T4M" opacity="1" fill="#e06807" fill-opacity="1"></use></g><g><use xlink:href="#c6wcqjQES0" opacity="1" fill="#e06807" fill-opacity="1"></use></g><g><use xlink:href="#a3j0Nowy0G" opacity="1" fill="#e06807" fill-opacity="1"></use></g><g><use xlink:href="#aimczXqmI" opacity="1" fill="#e06807" fill-opacity="1"></use></g><g><use xlink:href="#fM4P4cFm" opacity="1" fill="#e06807" fill-opacity="1"></use></g><g><use xlink:href="#bpXHgSsbn" opacity="1" fill="#e06807" fill-opacity="1"></use></g><g><use xlink:href="#d70qmJTSAt" opacity="1" fill="#e06807" fill-opacity="1"></use></g></g></g></svg>